# xmcd
# 
# Track frame offsets:
#     150
#     12045
#     24667
#     38350
#     52928
#     65548
#     77613
#     89419
#     101310
#     111628
#     124823
#     136712
#     152260
#     166875
#     176614
#     188343
#     201119
#     212587
#     223147
#     235094
#     251407
#     268295
#     277261
#     292878
#     308209
# 
# Disc length: 4273
# 
# Revision: 2
# Processed by: cddbd v1.5.2PL0 Copyright (c) Steve Scherf et al.
# Submitted via: fre:ac v1.0.31
# 
DISCID=5210af19
DTITLE=Plantation Records - The Plantation Records Story 1968-1981 Disc 2
DYEAR=2013
DGENRE=Country
TTITLE0=I Honky Tonked All The Way Back Home
TTITLE1=Dallas
TTITLE2=Sweetheart
TTITLE3=I've Never Been This Far Before
TTITLE4=Hippie From Mississippi
TTITLE5=Thinkin' On You
TTITLE6=The God Lord Giveth (And Uncle Sam Taketh Away)
TTITLE7=Border City Call Girl
TTITLE8=These Arms You Push Away
TTITLE9=I've Got Leaving On My Mind
TTITLE10=One Night Gone
TTITLE11=C.B. Savage
TTITLE12=Orange Blossom Special
TTITLE13=Alligator Man
TTITLE14=Blueberry Hill
TTITLE15=''T'' for Texas
TTITLE16=Come On In
TTITLE17=Memphis Sun
TTITLE18=Widow Jones
TTITLE19=Sugar Bee
TTITLE20=The Last Farewell
TTITLE21=Don't Bite The Hand That's Feeding You
TTITLE22=No Aces
TTITLE23=On The Inside
TTITLE24=Don't We Belong In Lave
EXTD=
EXTT0=
EXTT1=
EXTT2=
EXTT3=
EXTT4=
EXTT5=
EXTT6=
EXTT7=
EXTT8=
EXTT9=
EXTT10=
EXTT11=
EXTT12=
EXTT13=
EXTT14=
EXTT15=
EXTT16=
EXTT17=
EXTT18=
EXTT19=
EXTT20=
EXTT21=
EXTT22=
EXTT23=
EXTT24=
PLAYORDER=
